<svg width="24" height="24" viewBox="0 0 24 24" fill="none" xmlns="http://www.w3.org/2000/svg">
<g clip-path="url(#clip0_1146_2291)">
<mask id="mask0_1146_2291" style="mask-type:luminance" maskUnits="userSpaceOnUse" x="0" y="0" width="24" height="24">
<path d="M0 0H24V24H0V0Z" fill="white"/>
</mask>
<g mask="url(#mask0_1146_2291)">
<path d="M22.8582 11.877L20.8282 13.91L17.4482 10.529L19.4772 8.5" fill="#C77F67"/>
<path d="M20.8299 13.91L17.4499 10.53L13.7379 11.59C13.4253 11.6792 13.1407 11.8467 12.9109 12.0767C12.6811 12.3066 12.5139 12.5914 12.4249 12.904L10.2479 20.522C10.2245 20.604 10.2234 20.6908 10.2448 20.7733C10.2661 20.8558 10.3092 20.9312 10.3695 20.9914C10.4298 21.0517 10.5051 21.0948 10.5876 21.1162C10.6702 21.1376 10.7569 21.1365 10.8389 21.113L18.4589 18.932C18.7713 18.8427 19.0558 18.6751 19.2853 18.4452C19.5149 18.2153 19.682 17.9306 19.7709 17.618L20.8299 13.91Z" fill="white"/>
<path d="M10.439 21.024C10.4952 21.0672 10.5605 21.0971 10.63 21.1115C10.6994 21.1259 10.7712 21.1243 10.84 21.107L18.46 18.931C18.7724 18.8417 19.0568 18.6741 19.2864 18.4442C19.516 18.2142 19.6831 17.9295 19.772 17.617L20.829 13.91L19.194 12.273L10.439 21.024Z" fill="#E3E3E3"/>
<path d="M10.3681 20.987L16.0951 15.259M1.14209 1C8.79209 3.869 5.92409 9.129 3.05509 15.823C0.18509 22.517 4.48909 22.995 5.92409 22.995C6.96595 23.0436 7.98863 22.7028 8.79309 22.039M20.8301 13.91L17.4501 10.53L13.7381 11.59C13.4255 11.6792 13.1409 11.8467 12.9111 12.0766C12.6813 12.3066 12.514 12.5913 12.4251 12.904L10.2481 20.522C10.2246 20.604 10.2236 20.6907 10.2449 20.7733C10.2663 20.8558 10.3094 20.9311 10.3697 20.9914C10.43 21.0517 10.5053 21.0948 10.5878 21.1162C10.6704 21.1375 10.7571 21.1364 10.8391 21.113L18.4591 18.932C18.7715 18.8427 19.0559 18.6751 19.2855 18.4452C19.5151 18.2152 19.6822 17.9305 19.7711 17.618L20.8301 13.91Z" stroke="#191919" stroke-linecap="round" stroke-linejoin="round"/>
<path d="M22.8582 11.877L20.8282 13.91L17.4482 10.529L19.4772 8.5" stroke="#191919" stroke-linecap="round" stroke-linejoin="round"/>
</g>
</g>
<defs>
<clipPath id="clip0_1146_2291">
<rect width="24" height="24" fill="white"/>
</clipPath>
</defs>
</svg>
