<svg width="24" height="24" viewBox="0 0 24 24" fill="none" xmlns="http://www.w3.org/2000/svg">
<g clip-path="url(#clip0_1159_3141)">
<path d="M7.03034 0.0837654C5.75334 0.143765 4.88134 0.347765 4.12034 0.646765C3.32005 0.949917 2.5953 1.42353 1.99634 2.03477C1.38763 2.63538 0.916761 3.36114 0.616338 4.16177C0.321338 4.92577 0.120338 5.79977 0.0643384 7.07577C0.00833841 8.35177 -0.00466158 8.76377 0.00133842 12.0228C0.00733842 15.2818 0.0223384 15.6898 0.0843384 16.9698C0.145338 18.2468 0.348338 19.1188 0.647338 19.8808C0.955338 20.6698 1.36734 21.3378 2.03534 22.0038C2.63653 22.6127 3.36299 23.0836 4.16434 23.3838C4.92734 23.6788 5.80034 23.8798 7.07734 23.9358C8.35534 23.9918 8.76634 24.0048 12.0243 23.9988C15.2823 23.9928 15.6923 23.9778 16.9713 23.9168C18.2513 23.8568 19.1183 23.6518 19.8813 23.3538C20.6813 23.0505 21.4057 22.5769 22.0043 21.9658C22.6133 21.3646 23.0842 20.6381 23.3843 19.8368C23.6793 19.0738 23.8803 18.2008 23.9353 16.9248C23.9913 15.6448 24.0053 15.2348 23.9983 11.9768C23.9923 8.71877 23.9783 8.30977 23.9173 7.02977C23.8573 5.74977 23.6533 4.88177 23.3533 4.11877C23.0504 3.31893 22.5771 2.59453 21.9663 1.99577C21.3654 1.38694 20.6393 0.916059 19.8383 0.615765C19.0743 0.321765 18.2023 0.119765 16.9243 0.0657654C15.6473 0.0087654 15.2363 -0.0062346 11.9773 -0.000234599C8.71834 0.0057654 8.31034 0.0207654 7.03034 0.0837654ZM7.17034 21.7768C6.00034 21.7268 5.36534 21.5318 4.94234 21.3688C4.4203 21.178 3.94794 20.8721 3.56034 20.4738C3.16068 20.0878 2.85308 19.6168 2.66034 19.0958C2.49534 18.6728 2.29734 18.0378 2.24334 16.8678C2.18334 15.6038 2.17134 15.2238 2.16334 12.0198C2.15734 8.81577 2.16934 8.43677 2.22434 7.17177C2.27434 6.00277 2.47034 5.36677 2.63234 4.94377C2.84834 4.38277 3.10934 3.98377 3.52734 3.56177C3.91356 3.16199 4.3849 2.85437 4.90634 2.66177C5.32934 2.49677 5.96334 2.30077 7.13334 2.24477C8.39834 2.18477 8.77734 2.17277 11.9813 2.16477C15.1843 2.15877 15.5643 2.17077 16.8313 2.22677C17.9993 2.27677 18.6353 2.47077 19.0583 2.63477C19.6183 2.85077 20.0183 3.10977 20.4403 3.52977C20.8623 3.94977 21.1213 4.34677 21.3403 4.90777C21.5053 5.32977 21.7023 5.96377 21.7573 7.13477C21.8173 8.39977 21.8313 8.77977 21.8373 11.9828C21.8423 15.1858 21.8313 15.5658 21.7763 16.8308C21.7253 18.0008 21.5313 18.6358 21.3683 19.0608C21.1523 19.6208 20.8913 20.0208 20.4723 20.4408C20.0864 20.8404 19.6154 21.148 19.0943 21.3408C18.6723 21.5058 18.0363 21.7028 16.8683 21.7588C15.6023 21.8188 15.2233 21.8308 12.0183 21.8378C8.81334 21.8448 8.43634 21.8308 7.17034 21.7768ZM16.9533 5.58577C16.9537 5.87061 17.0386 6.14894 17.1972 6.38555C17.3558 6.62216 17.581 6.80641 17.8444 6.91501C18.1077 7.0236 18.3973 7.05166 18.6766 6.99563C18.9559 6.9396 19.2123 6.80199 19.4133 6.60023C19.6144 6.39846 19.7511 6.14159 19.8062 5.86212C19.8612 5.58264 19.8322 5.29311 19.7227 5.03016C19.6132 4.7672 19.4281 4.54263 19.191 4.38485C18.9538 4.22707 18.6752 4.14317 18.3903 4.14377C18.0086 4.14456 17.6428 4.2969 17.3733 4.5673C17.1039 4.8377 16.9528 5.20403 16.9533 5.58577ZM5.83934 12.0118C5.84252 13.6459 6.49473 15.2118 7.65249 16.3651C8.81024 17.5183 10.3787 18.1644 12.0128 18.1613C13.647 18.1581 15.2129 17.5059 16.3662 16.3481C17.5194 15.1904 18.1655 13.6219 18.1623 11.9878C18.1388 10.3671 17.4776 8.821 16.3221 7.68438C15.1666 6.54777 13.6098 5.91219 11.989 5.91535C10.3682 5.91851 8.81385 6.56014 7.66278 7.70125C6.51171 8.84235 5.85659 10.391 5.83934 12.0118ZM8.00034 12.0078C7.99876 11.2166 8.23181 10.4428 8.67002 9.78414C9.10823 9.12547 9.73192 8.61153 10.4622 8.30732C11.1925 8.00311 11.9966 7.92229 12.7728 8.07508C13.5491 8.22787 14.2626 8.60741 14.8231 9.1657C15.3836 9.72398 15.766 10.436 15.9219 11.2116C16.0778 11.9872 16.0002 12.7916 15.6989 13.5231C15.3976 14.2546 14.8862 14.8804 14.2293 15.3212C13.5723 15.762 12.7995 15.9982 12.0083 15.9998C11.4831 16.0008 10.9627 15.8984 10.477 15.6983C9.99129 15.4983 9.54974 15.2045 9.17757 14.8339C8.80539 14.4632 8.50987 14.0228 8.30788 13.5379C8.10589 13.053 8.00139 12.5331 8.00034 12.0078Z" fill="url(#paint0_linear_1159_3141)"/>
</g>
<defs>
<linearGradient id="paint0_linear_1159_3141" x1="12" y1="-0.00146484" x2="12" y2="24.0001" gradientUnits="userSpaceOnUse">
<stop stop-color="#C837AB"/>
<stop offset="0.355769" stop-color="#EF4B5E"/>
<stop offset="1" stop-color="#FFC951"/>
</linearGradient>
<clipPath id="clip0_1159_3141">
<rect width="24" height="24" fill="white"/>
</clipPath>
</defs>
</svg>
