<svg width="24" height="24" viewBox="0 0 24 24" fill="none" xmlns="http://www.w3.org/2000/svg">
<path d="M5.16 7.33514C6.36 7.33514 7.32 6.36014 7.32 5.17514C7.32 3.99014 6.345 3.01514 5.16 3.01514C3.975 3.01514 3 3.99014 3 5.17514C3 6.36014 3.975 7.33514 5.16 7.33514ZM9.375 8.97014V21.0001H13.095V15.0601C13.095 13.4851 13.395 11.9701 15.33 11.9701C17.265 11.9701 17.265 13.7701 17.265 15.1501V21.0001H21V14.4001C21 11.1601 20.31 8.67014 16.53 8.67014C14.715 8.67014 13.5 9.66014 13.005 10.6051H12.96V8.95514H9.39L9.375 8.97014ZM3.3 8.97014H7.035V21.0001H3.3V8.97014Z" fill="white"/>
</svg>
