<svg width="24" height="24" viewBox="0 0 24 24" fill="none" xmlns="http://www.w3.org/2000/svg">
<path d="M10.396 11.5191H10.288L10.528 11.3871C11.0257 11.1307 11.4144 10.7036 11.623 10.1841C11.812 9.63934 11.8618 9.056 11.768 8.48709C11.712 7.98401 11.5217 7.50528 11.2169 7.10112C10.9122 6.69696 10.5043 6.38227 10.036 6.19008C9.42859 5.92768 8.77261 5.79649 8.111 5.80508H2V18.1591H7.582C8.11376 18.1596 8.64463 18.1154 9.169 18.0271C9.74151 17.9458 10.2846 17.7228 10.749 17.3782C11.2134 17.0336 11.5843 16.5785 11.828 16.0541C12.1924 15.3077 12.298 14.4611 12.128 13.6481C12.0561 13.1706 11.8575 12.7212 11.5529 12.3465C11.2483 11.9719 10.8488 11.6858 10.396 11.5181V11.5191ZM4.9 7.95908H7.306C7.71206 7.9589 8.11642 8.01134 8.509 8.11508C8.72236 8.16545 8.91421 8.28227 9.05691 8.44869C9.19961 8.61511 9.28578 8.82254 9.303 9.04109C9.3523 9.28731 9.3523 9.54086 9.303 9.78708C9.26843 9.92614 9.20437 10.0561 9.11517 10.1683C9.02597 10.2804 8.91371 10.3721 8.786 10.4371C8.41329 10.624 7.99974 10.7148 7.583 10.7011H4.875L4.9 7.95908ZM9.555 14.8631C9.50084 15.1548 9.3551 15.4216 9.13894 15.6248C8.92279 15.828 8.64748 15.957 8.353 15.9931C8.09146 16.0454 7.8257 16.0739 7.559 16.0781H4.875V12.8061H7.738C8.04535 12.8064 8.3504 12.8591 8.64 12.9621C8.89792 13.0437 9.12424 13.2031 9.2879 13.4185C9.45155 13.6339 9.54451 13.8947 9.554 14.1651C9.58537 14.3967 9.58537 14.6315 9.554 14.8631H9.555ZM21.994 14.0571C22.006 14.0331 22.006 14.0091 21.97 14.0331V12.6981C21.9578 12.0863 21.8182 11.4838 21.56 10.9291C21.1692 10.0955 20.4839 9.43581 19.636 9.07708C18.7033 8.69375 17.6784 8.59325 16.689 8.78808C15.9374 8.89285 15.2328 9.21517 14.6621 9.71535C14.0914 10.2155 13.6794 10.8717 13.477 11.6031C13.1257 12.7254 13.0761 13.9205 13.333 15.0681C13.453 15.7154 13.7532 16.3157 14.199 16.8001C14.7674 17.3805 15.4824 17.7962 16.268 18.0031C17.024 18.2095 17.8157 18.2504 18.589 18.1231C19.561 18.0048 20.4559 17.534 21.104 16.8001C21.4264 16.4563 21.6688 16.0455 21.814 15.5971C21.8825 15.4944 21.9123 15.3707 21.898 15.2481H19.54C19.515 15.246 19.4899 15.2519 19.4684 15.2648C19.4469 15.2777 19.43 15.297 19.42 15.3201C19.3021 15.5526 19.1322 15.7549 18.9236 15.9113C18.715 16.0677 18.4733 16.1741 18.217 16.2221C17.8597 16.2952 17.4913 16.2952 17.134 16.2221C16.827 16.1761 16.536 16.0556 16.2864 15.8712C16.0368 15.6868 15.8361 15.444 15.702 15.1641C15.5966 14.9356 15.5277 14.692 15.498 14.4421V14.0571H21.994ZM15.642 12.3251C15.695 12.1327 15.7594 11.9437 15.835 11.7591C15.9623 11.4438 16.1797 11.1731 16.46 10.9806C16.7403 10.7882 17.0711 10.6826 17.411 10.6771C17.7661 10.6433 18.1242 10.6926 18.457 10.8211C18.7586 10.9366 19.0232 11.132 19.2222 11.3864C19.4213 11.6408 19.5474 11.9445 19.587 12.2651V12.5171L15.642 12.5531C15.6377 12.4771 15.6377 12.401 15.642 12.3251ZM20.057 6.31008H15.053V7.75408L20.057 7.74208V6.31008Z" fill="white"/>
</svg>
