<svg width="32" height="32" viewBox="0 0 32 32" fill="none" xmlns="http://www.w3.org/2000/svg">
<path d="M8.89009 10.1825C8.74759 11.7025 8.64759 14.3925 9.54509 15.5375C9.54509 15.5375 9.12259 12.5825 12.9101 8.87497C14.4351 7.38247 14.7876 5.35247 14.2551 3.82997C13.9526 2.96747 13.4001 2.25497 12.9201 1.75747C12.6401 1.46497 12.8551 0.982475 13.2626 0.999975C15.7276 1.10997 19.7226 1.79497 21.4201 6.05497C22.1651 7.92497 22.2201 9.85748 21.8651 11.8225C21.6401 13.0775 20.8401 15.8675 22.6651 16.21C23.9676 16.455 24.5976 15.42 24.8801 14.675C24.9976 14.365 25.4051 14.2875 25.6251 14.535C27.8251 17.0375 28.0126 19.985 27.5576 22.5225C26.6776 27.4275 21.7101 30.9975 16.7751 30.9975C10.6101 30.9975 5.70259 27.47 4.43009 21.085C3.91759 18.5075 4.17759 13.4075 8.15259 9.80748C8.44759 9.53748 8.93009 9.77748 8.89009 10.1825Z" fill="url(#paint0_radial_1152_3130)"/>
<path d="M19.0277 19.355C16.7552 16.43 17.7727 13.0925 18.3302 11.7625C18.4052 11.5875 18.2052 11.4225 18.0477 11.53C17.0702 12.195 15.0677 13.76 14.1352 15.9625C12.8727 18.94 12.9627 20.3975 13.7102 22.1775C14.1602 23.25 13.6377 23.4775 13.3752 23.5175C13.1202 23.5575 12.8852 23.3875 12.6977 23.21C12.1584 22.6921 11.774 22.0342 11.5877 21.31C11.5477 21.155 11.3452 21.1125 11.2527 21.24C10.5527 22.2075 10.1902 23.76 10.1727 24.8575C10.1177 28.25 12.9202 31 16.3102 31C20.5827 31 23.6952 26.275 21.2402 22.325C20.5277 21.175 19.8577 20.4225 19.0277 19.355Z" fill="url(#paint1_radial_1152_3130)"/>
<defs>
<radialGradient id="paint0_radial_1152_3130" cx="0" cy="0" r="1" gradientTransform="matrix(-17.6468 -0.0765869 -0.125821 28.9548 15.554 31.0752)" gradientUnits="userSpaceOnUse">
<stop offset="0.314" stop-color="#FF9800"/>
<stop offset="0.662" stop-color="#FF6D00"/>
<stop offset="0.972" stop-color="#F44336"/>
</radialGradient>
<radialGradient id="paint1_radial_1152_3130" cx="0" cy="0" r="1" gradientTransform="matrix(-0.186496 18.4632 13.8949 0.140334 16.5452 13.5146)" gradientUnits="userSpaceOnUse">
<stop offset="0.214" stop-color="#FFF176"/>
<stop offset="0.328" stop-color="#FFF27D"/>
<stop offset="0.487" stop-color="#FFF48F"/>
<stop offset="0.672" stop-color="#FFF7AD"/>
<stop offset="0.793" stop-color="#FFF9C4"/>
<stop offset="0.822" stop-color="#FFF8BD" stop-opacity="0.804"/>
<stop offset="0.863" stop-color="#FFF6AB" stop-opacity="0.529"/>
<stop offset="0.91" stop-color="#FFF38D" stop-opacity="0.209"/>
<stop offset="0.941" stop-color="#FFF176" stop-opacity="0"/>
</radialGradient>
</defs>
</svg>
